<?xml version="1.0" standalone="no"?>
<!DOCTYPE svg PUBLIC "-//W3C//DTD SVG 20010904//EN"
 "http://www.w3.org/TR/2001/REC-SVG-20010904/DTD/svg10.dtd">
<svg version="1.0" xmlns="http://www.w3.org/2000/svg"
 width="192.000000pt" height="192.000000pt" viewBox="0 0 192.000000 192.000000"
 preserveAspectRatio="xMidYMid meet">
<metadata>
Created by potrace 1.14, written by Peter Selinger 2001-2017
</metadata>
<g transform="translate(0.000000,192.000000) scale(0.100000,-0.100000)"
fill="#000000" stroke="none">
<path d="M1002 1527 c-20 -21 -34 -68 -48 -155 -3 -20 -8 -40 -10 -43 -3 -5
-6 -20 -19 -99 -3 -19 -8 -42 -10 -50 -16 -54 -146 -712 -147 -740 0 -80 111
-98 140 -23 9 23 40 159 57 253 3 14 12 59 20 100 8 41 17 84 19 95 2 11 18
90 36 175 18 85 34 166 37 180 2 14 13 63 23 110 34 154 34 167 6 195 -32 32
-75 33 -104 2z"/>
<path d="M224 1218 c-118 -117 -217 -223 -220 -235 -3 -12 -3 -31 1 -43 6 -19
366 -386 423 -431 35 -27 66 -24 95 11 44 51 34 67 -162 263 l-177 178 173
174 c95 96 177 185 183 199 12 32 -1 71 -29 85 -52 28 -64 20 -287 -201z"/>
<path d="M1399 1412 c-15 -13 -22 -30 -22 -54 0 -32 15 -50 176 -212 98 -98
177 -181 177 -185 0 -3 -75 -80 -166 -171 -91 -91 -172 -177 -179 -192 -29
-53 27 -122 83 -104 11 4 117 103 235 221 211 211 215 216 212 252 -3 34 -24
58 -219 250 -231 229 -244 237 -297 195z"/>
</g>
</svg>
